<svg xmlns="http://www.w3.org/2000/svg" viewBox="0 0 410 404">
  <defs>
    <linearGradient x1="14.023%" y1="18.218%" x2="85.976%" y2="81.782%" id="a">
      <stop stop-color="#41D1FF" offset="0%" />
      <stop stop-color="#BD34FE" offset="100%" />
    </linearGradient>
    <linearGradient x1="14.023%" y1="18.218%" x2="85.976%" y2="81.782%" id="b">
      <stop stop-color="#FFEA83" offset="0%" />
      <stop stop-color="#FFA800" offset="8.333%" />
      <stop stop-color="#FF1A00" offset="100%" />
    </linearGradient>
  </defs>
  <g fill="none" fill-rule="evenodd">
    <path d="M399.641 59.525L215.643 388.545c-7.598 13.861-27.682 13.95-35.386.162L10.338 59.597c-7.945-14.056 4.188-31.023 20.32-28.5l170.51 27.462a20 20 0 0 0 6.332-.006l171.87-27.45c16.145-2.58 28.27 14.4 20.303 28.46z" fill="url(#a)" />
    <path d="M292.965.004L156.789 27.373a10 10 0 0 0-7.994 8.35l-23.198 168.42a10 10 0 0 0 11.73 11.275l45.06-7.413c7.158-1.178 13.362 4.888 12.17 12.05l-13.386 80.016c-1.266 7.566 8.056 11.93 12.788 5.495l1.422-1.926 165.95-250.586c4.16-6.287-1.35-14.49-8.806-13.058l-46.206 8.805c-7.176 1.367-13.51-4.767-12.222-11.96l8.95-50.576c1.214-6.86-4.83-12.647-11.616-11.266z" fill="url(#b)" />
  </g>
</svg>
